<svg width="16" height="16" viewBox="0 0 16 16" fill="none" xmlns="http://www.w3.org/2000/svg">
<path d="M15.7401 0.259984C15.4347 -0.0453608 14.9396 -0.0453608 14.6343 0.259984L8.00003 6.89425L1.36576 0.259984C1.06042 -0.0453608 0.565359 -0.0453608 0.260014 0.259984C-0.0453303 0.565328 -0.0453303 1.06039 0.260014 1.36573L6.89428 8L0.260014 14.6343C-0.0453303 14.9396 -0.0453303 15.4347 0.260014 15.74C0.565359 16.0454 1.06042 16.0454 1.36576 15.74L8.00003 9.10575L14.6343 15.74C14.9396 16.0454 15.4347 16.0454 15.7401 15.74C16.0454 15.4347 16.0454 14.9396 15.7401 14.6343L9.10578 8L15.7401 1.36573C16.0454 1.06039 16.0454 0.565328 15.7401 0.259984Z" fill="white" fill-opacity="0.4"/>
</svg>
